<svg width="122" height="35" viewBox="0 0 122 35" fill="none" xmlns="http://www.w3.org/2000/svg">
<g clip-path="url(#clip0_622_717)">
<path d="M56.8154 0V35H29.4355V26.25H48.3164V7.9541H37.8486V13.125H43.4854V21.4775H29.4355V0H56.8154Z" fill="#FFFFFF"></path>
<path d="M27.3799 0V21.4775H13.2871V13.125H18.9238V7.9541H8.45508V26.25H27.3799V35H0V0H27.3799Z" fill="#FFFFFF"></path>
<path d="M66.7583 12.7976H71.624V14.4313H64.7029V5.62473H71.4557V7.25837H66.7583V12.7976ZM66.6053 9.17349H70.91V10.7569H66.6053V9.17349Z" fill="#FFFFFF"></path>
<path d="M75.2095 14.5368C74.674 14.5368 74.2149 14.4464 73.8324 14.2654C73.4499 14.0844 73.1541 13.8381 72.9501 13.5315C72.7461 13.2199 72.644 12.873 72.644 12.486C72.644 12.099 72.7461 11.732 72.945 11.4304C73.1439 11.1288 73.4601 10.8926 73.8987 10.7166C74.3323 10.5457 74.8984 10.4603 75.5971 10.4603H77.4231V11.6063H75.8165C75.3472 11.6063 75.0259 11.6817 74.8525 11.8325C74.6791 11.9833 74.5924 12.1744 74.5924 12.4005C74.5924 12.6519 74.6944 12.8529 74.8933 12.9987C75.0922 13.1445 75.3676 13.2199 75.7196 13.2199C76.0715 13.2199 76.352 13.1445 76.6121 12.9887C76.8773 12.8328 77.066 12.6066 77.1884 12.305L77.4945 13.2098C77.3517 13.6471 77.0864 13.9789 76.7039 14.2051C76.3214 14.4313 75.8267 14.5469 75.2248 14.5469L75.2095 14.5368ZM77.3058 14.4363V13.1143L77.1782 12.8228V10.4553C77.1782 10.0381 77.0507 9.7063 76.7906 9.47508C76.5305 9.23883 76.1327 9.12322 75.5971 9.12322C75.2299 9.12322 74.8729 9.17851 74.5159 9.29413C74.1639 9.40974 73.863 9.56053 73.6131 9.75154L72.8991 8.37929C73.2714 8.11791 73.7253 7.91685 74.2507 7.7761C74.776 7.63536 75.3166 7.55996 75.8624 7.55996C76.9079 7.55996 77.724 7.80123 78.3003 8.28881C78.8818 8.77639 79.1674 9.5354 79.1674 10.5658V14.4313H77.3007L77.3058 14.4363Z" fill="#FFFFFF"></path>
<path d="M83.2833 14.5368C82.6968 14.5368 82.1307 14.4665 81.59 14.3307C81.0494 14.195 80.621 14.0191 80.3047 13.808L80.9678 12.4005C81.284 12.5916 81.6563 12.7524 82.0848 12.873C82.5132 12.9937 82.9365 13.054 83.3547 13.054C83.8138 13.054 84.1402 12.9987 84.334 12.8881C84.5278 12.7775 84.6196 12.6267 84.6196 12.4357C84.6196 12.2749 84.5431 12.1593 84.3952 12.0788C84.2473 11.9984 84.0484 11.9381 83.8036 11.8979C83.5588 11.8577 83.2884 11.8124 82.9926 11.7722C82.6968 11.732 82.401 11.6717 82.1052 11.6013C81.8093 11.5309 81.5339 11.4254 81.2891 11.2796C81.0443 11.1389 80.8454 10.9428 80.6924 10.7016C80.5394 10.4603 80.468 10.1436 80.468 9.75657C80.468 9.32931 80.5955 8.95232 80.8454 8.62559C81.0953 8.29887 81.4625 8.03748 81.9369 7.8515C82.4112 7.66049 82.9824 7.57001 83.6506 7.57001C84.1198 7.57001 84.5941 7.62028 85.0787 7.72081C85.5632 7.82134 85.9661 7.96711 86.2925 8.16315L85.6295 9.56053C85.298 9.36952 84.9614 9.23381 84.6298 9.16343C84.2932 9.09306 83.9668 9.05788 83.6506 9.05788C83.2068 9.05788 82.8855 9.1182 82.6815 9.23381C82.4775 9.34942 82.3755 9.50022 82.3755 9.6862C82.3755 9.85208 82.452 9.97774 82.5999 10.0632C82.7478 10.1486 82.9467 10.214 83.1966 10.2643C83.4415 10.3145 83.7118 10.3598 84.0076 10.3949C84.3034 10.4352 84.5992 10.4904 84.895 10.5658C85.1909 10.6412 85.4612 10.7468 85.706 10.8875C85.9508 11.0283 86.1446 11.2143 86.3027 11.4556C86.4558 11.6968 86.5323 12.0085 86.5323 12.3955C86.5323 12.8127 86.4048 13.1847 86.1497 13.5114C85.8947 13.8381 85.5275 14.0895 85.043 14.2704C84.5635 14.4564 83.977 14.5469 83.2884 14.5469L83.2833 14.5368Z" fill="#FFFFFF"></path>
<path d="M86.9352 9.32429V7.81632H91.6989V9.32429H86.9352ZM90.5615 14.5368C89.7557 14.5368 89.1232 14.3358 88.6693 13.9286C88.2154 13.5215 87.991 12.9133 87.991 12.109V6.1676H89.9852V12.0839C89.9852 12.3704 90.0617 12.5916 90.2147 12.7424C90.3677 12.8982 90.5768 12.9736 90.842 12.9736C91.1583 12.9736 91.4235 12.8881 91.6479 12.7222L92.1834 14.1046C91.9794 14.2453 91.7346 14.3559 91.449 14.4263C91.1634 14.4966 90.8675 14.5318 90.5615 14.5318V14.5368Z" fill="#FFFFFF"></path>
<path d="M96.024 14.1096C95.3865 14.1096 94.8101 13.9739 94.295 13.7024C93.7799 13.431 93.3667 13.049 93.0556 12.5564C92.7445 12.0638 92.5915 11.4907 92.5915 10.8373C92.5915 10.1838 92.7445 9.59572 93.0556 9.10814C93.3667 8.62057 93.7799 8.23855 94.295 7.96711C94.8101 7.7007 95.3865 7.56499 96.024 7.56499C96.6004 7.56499 97.1155 7.6806 97.5541 7.91182C97.9928 8.14304 98.3396 8.49993 98.5895 8.98248C98.8343 9.46503 98.9618 10.0833 98.9618 10.8373C98.9618 11.5913 98.8394 12.1995 98.5895 12.682C98.3447 13.1646 97.9979 13.5215 97.5541 13.7577C97.1104 13.994 96.6004 14.1096 96.024 14.1096ZM96.33 16.9798C95.6823 16.9798 95.0601 16.9044 94.4582 16.7485C93.8564 16.5927 93.3565 16.3615 92.9587 16.0498L93.7493 14.6424C94.04 14.8786 94.4072 15.0646 94.856 15.2003C95.3049 15.3361 95.7435 15.4064 96.177 15.4064C96.886 15.4064 97.396 15.2506 97.7173 14.939C98.0387 14.6273 98.1968 14.1649 98.1968 13.5567V12.5363L98.3243 10.8373L98.2988 9.12322V7.66552H100.191V13.3053C100.191 14.562 99.8595 15.4919 99.1964 16.085C98.5334 16.6782 97.5796 16.9798 96.3351 16.9798H96.33ZM96.4218 12.5011C96.7687 12.5011 97.0798 12.4307 97.3552 12.295C97.6306 12.1593 97.8397 11.9632 97.9928 11.7119C98.1458 11.4606 98.2223 11.169 98.2223 10.8423C98.2223 10.5156 98.1458 10.214 97.9928 9.96769C97.8397 9.72139 97.6255 9.52535 97.3552 9.38963C97.0849 9.25391 96.7738 9.18354 96.4218 9.18354C96.0699 9.18354 95.7639 9.25391 95.4885 9.38963C95.2131 9.52535 94.9989 9.72139 94.8458 9.96769C94.6928 10.214 94.6112 10.5055 94.6112 10.8423C94.6112 11.1791 94.6877 11.4606 94.8458 11.7119C95.004 11.9632 95.2182 12.1593 95.4885 12.295C95.7588 12.4307 96.0699 12.5011 96.4218 12.5011Z" fill="#FFFFFF"></path>
<path d="M104.159 14.5368C103.623 14.5368 103.164 14.4464 102.782 14.2654C102.399 14.0844 102.104 13.8381 101.9 13.5315C101.696 13.2199 101.594 12.873 101.594 12.486C101.594 12.099 101.696 11.732 101.894 11.4304C102.093 11.1288 102.41 10.8926 102.848 10.7166C103.282 10.5457 103.848 10.4603 104.547 10.4603H106.373V11.6063H104.766C104.297 11.6063 103.975 11.6817 103.802 11.8325C103.629 11.9833 103.542 12.1744 103.542 12.4005C103.542 12.6519 103.644 12.8529 103.843 12.9987C104.042 13.1445 104.317 13.2199 104.669 13.2199C105.021 13.2199 105.302 13.1445 105.562 12.9887C105.827 12.8328 106.016 12.6066 106.138 12.305L106.444 13.2098C106.301 13.6471 106.036 13.9789 105.653 14.2051C105.271 14.4313 104.776 14.5469 104.174 14.5469L104.159 14.5368ZM106.255 14.4363V13.1143L106.128 12.8228V10.4553C106.128 10.0381 106 9.7063 105.74 9.47508C105.48 9.23883 105.082 9.12322 104.547 9.12322C104.179 9.12322 103.822 9.17851 103.465 9.29413C103.113 9.40974 102.813 9.56053 102.563 9.75154L101.849 8.37929C102.221 8.11791 102.675 7.91685 103.2 7.7761C103.726 7.63536 104.266 7.55996 104.812 7.55996C105.857 7.55996 106.673 7.80123 107.25 8.28881C107.831 8.77639 108.117 9.5354 108.117 10.5658V14.4313H106.25L106.255 14.4363Z" fill="#FFFFFF"></path>
<path d="M109.101 9.32429V7.81632H113.865V9.32429H109.101ZM112.728 14.5368C111.917 14.5368 111.289 14.3358 110.835 13.9286C110.381 13.5215 110.157 12.9133 110.157 12.109V6.1676H112.151V12.0839C112.151 12.3704 112.228 12.5916 112.381 12.7424C112.534 12.8982 112.743 12.9736 113.008 12.9736C113.324 12.9736 113.59 12.8881 113.814 12.7222L114.349 14.1046C114.145 14.2453 113.901 14.3559 113.615 14.4263C113.329 14.4966 113.034 14.5318 112.728 14.5318V14.5368Z" fill="#FFFFFF"></path>
<path d="M118.68 14.5368C117.894 14.5368 117.211 14.386 116.619 14.0844C116.028 13.7829 115.568 13.3707 115.247 12.8429C114.926 12.3201 114.763 11.722 114.763 11.0484C114.763 10.3748 114.921 9.76662 115.242 9.24386C115.563 8.7211 115.997 8.30892 116.553 8.01235C117.104 7.71578 117.731 7.56499 118.43 7.56499C119.129 7.56499 119.71 7.70573 120.251 7.98722C120.791 8.26871 121.22 8.67083 121.536 9.1936C121.852 9.71636 122.01 10.3447 122.01 11.0735C122.01 11.1489 122.01 11.2344 121.995 11.3299C121.985 11.4254 121.98 11.5159 121.969 11.6013H116.39V10.4553H120.924L120.159 10.7971C120.159 10.4452 120.087 10.1386 119.939 9.87721C119.797 9.61583 119.593 9.41476 119.338 9.26899C119.083 9.12322 118.782 9.04783 118.445 9.04783C118.108 9.04783 117.802 9.12322 117.542 9.26899C117.282 9.41476 117.078 9.62085 116.935 9.88726C116.793 10.1537 116.716 10.4653 116.716 10.8272V11.1288C116.716 11.5008 116.798 11.8225 116.966 12.104C117.134 12.3855 117.364 12.6016 117.67 12.7474C117.971 12.8932 118.328 12.9685 118.736 12.9685C119.103 12.9685 119.424 12.9133 119.7 12.8027C119.975 12.6921 120.23 12.5312 120.46 12.3101L121.521 13.441C121.204 13.7929 120.812 14.0643 120.332 14.2554C119.858 14.4464 119.307 14.5368 118.685 14.5368H118.68Z" fill="#FFFFFF"></path>
<path d="M67.0949 28.8927C66.6155 28.8927 66.1564 28.8173 65.7178 28.6615C65.2792 28.5057 64.9426 28.3096 64.7029 28.0684L64.9681 27.5506C65.1976 27.7668 65.4985 27.9528 65.881 28.0985C66.2636 28.2443 66.6665 28.3197 67.0898 28.3197C67.5131 28.3197 67.8243 28.2694 68.0793 28.1689C68.3343 28.0684 68.523 27.9326 68.6403 27.7668C68.7627 27.5959 68.8188 27.4099 68.8188 27.2038C68.8188 26.9575 68.7474 26.7564 68.6046 26.6056C68.4618 26.4548 68.2731 26.3342 68.0385 26.2487C67.8039 26.1633 67.5488 26.0829 67.2632 26.0175C66.9827 25.9522 66.6971 25.8818 66.4166 25.8064C66.136 25.731 65.8759 25.6305 65.6413 25.5048C65.4067 25.3792 65.2129 25.2082 65.0701 25.0022C64.9273 24.791 64.8559 24.5196 64.8559 24.1828C64.8559 23.8712 64.9426 23.5796 65.1109 23.3183C65.2792 23.0569 65.5393 22.8458 65.8912 22.6849C66.2432 22.5241 66.6869 22.4436 67.2326 22.4436C67.5947 22.4436 67.9518 22.4939 68.3088 22.5944C68.6658 22.695 68.9718 22.8307 69.2268 23.0066L68.9973 23.5394C68.7219 23.3585 68.4261 23.2278 68.1201 23.1423C67.809 23.0569 67.5131 23.0167 67.2224 23.0167C66.8348 23.0167 66.5186 23.0669 66.2636 23.1725C66.0085 23.278 65.8249 23.4138 65.7076 23.5847C65.5903 23.7556 65.5291 23.9516 65.5291 24.1677C65.5291 24.414 65.6005 24.6151 65.7433 24.7659C65.8861 24.9167 66.0799 25.0373 66.3146 25.1178C66.5492 25.2032 66.8093 25.2786 67.0898 25.344C67.3703 25.4093 67.6508 25.4847 67.9314 25.5601C68.2119 25.6405 68.4669 25.7411 68.7066 25.8617C68.9412 25.9874 69.135 26.1482 69.2779 26.3543C69.4207 26.5604 69.4921 26.8268 69.4921 27.1636C69.4921 27.4702 69.4054 27.7567 69.237 28.0231C69.0687 28.2895 68.8035 28.4956 68.4516 28.6565C68.0997 28.8173 67.6457 28.8977 67.0949 28.8977V28.8927Z" fill="#FFFFFF"></path>
<path d="M73.7968 28.8927C73.3122 28.8927 72.8634 28.8123 72.4503 28.6514C72.0372 28.4906 71.675 28.2644 71.3741 27.9729C71.0732 27.6813 70.8335 27.3395 70.6652 26.9474C70.4969 26.5554 70.4102 26.1281 70.4102 25.6657C70.4102 25.2032 70.4969 24.7709 70.6652 24.3839C70.8335 23.9918 71.0681 23.65 71.3741 23.3585C71.6801 23.0669 72.0372 22.8407 72.4452 22.6799C72.8583 22.519 73.3071 22.4386 73.7968 22.4386C74.2864 22.4386 74.7301 22.519 75.1382 22.6799C75.5513 22.8407 75.9083 23.0669 76.2092 23.3534C76.5102 23.64 76.7499 23.9868 76.9182 24.3789C77.0865 24.7709 77.1732 25.2032 77.1732 25.6657C77.1732 26.1281 77.0865 26.5604 76.9182 26.9525C76.7499 27.3445 76.5153 27.6863 76.2092 27.9779C75.9032 28.2694 75.5462 28.4956 75.1382 28.6514C74.725 28.8123 74.2813 28.8927 73.7968 28.8927ZM73.7968 28.2946C74.1844 28.2946 74.5414 28.2292 74.8678 28.0985C75.1943 27.9678 75.4799 27.7869 75.7247 27.5456C75.9695 27.3043 76.1531 27.0279 76.2908 26.7112C76.4234 26.3945 76.4949 26.0427 76.4949 25.6657C76.4949 25.2887 76.4286 24.9368 76.2908 24.6201C76.1582 24.3035 75.9695 24.027 75.7247 23.7857C75.4799 23.5445 75.1943 23.3635 74.8678 23.2328C74.5414 23.1021 74.1844 23.0368 73.7968 23.0368C73.4092 23.0368 73.0521 23.1021 72.7206 23.2328C72.3891 23.3635 72.1035 23.5495 71.8586 23.7857C71.6138 24.022 71.4251 24.3035 71.2874 24.6201C71.1497 24.9368 71.0783 25.2887 71.0783 25.6657C71.0783 26.0427 71.1497 26.3895 71.2874 26.7112C71.4251 27.0329 71.6138 27.3094 71.8586 27.5506C72.0984 27.7919 72.3891 27.9729 72.7206 28.1035C73.0521 28.2342 73.4092 28.2996 73.7968 28.2996V28.2946Z" fill="#FFFFFF"></path>
<path d="M79.3816 28.8374H78.7032V22.4889H83.1201V23.0669H79.3816V28.8374ZM79.3102 25.5651H82.7172V26.1482H79.3102V25.5651Z" fill="#FFFFFF"></path>
<path d="M85.8233 28.8374V23.0669H83.5588V22.4889H88.7662V23.0669H86.5017V28.8374H85.8182H85.8233Z" fill="#FFFFFF"></path>
<path d="M91.2807 28.8374L89.108 22.4889H89.8067L91.8418 28.4655H91.4898L93.5861 22.4889H94.2134L96.2841 28.4655H95.9526L98.0029 22.4889H98.6558L96.4831 28.8374H95.7639L93.785 23.1675H93.9686L91.9795 28.8374H91.2705H91.2807Z" fill="#FFFFFF"></path>
<path d="M98.6864 28.8374L101.629 22.4889H102.303L105.245 28.8374H104.526L101.823 22.8809H102.098L99.3902 28.8374H98.6813H98.6864ZM99.8442 27.1435L100.048 26.6006H103.792L103.996 27.1435H99.8442Z" fill="#FFFFFF"></path>
<path d="M106.316 28.8374V22.4889H108.729C109.275 22.4889 109.744 22.5743 110.137 22.7452C110.529 22.9161 110.83 23.1675 111.044 23.4892C111.259 23.8109 111.361 24.2029 111.361 24.6654C111.361 25.1278 111.254 25.4998 111.044 25.8215C110.835 26.1432 110.529 26.3945 110.137 26.5654C109.744 26.7363 109.275 26.8218 108.729 26.8218H106.694L107 26.5152V28.8374H106.322H106.316ZM106.995 26.5704L106.689 26.2538H108.703C109.346 26.2538 109.836 26.113 110.172 25.8366C110.509 25.5601 110.672 25.168 110.672 24.6654C110.672 24.1627 110.504 23.7656 110.172 23.4841C109.836 23.2077 109.346 23.0669 108.703 23.0669H106.689L106.995 22.7503V26.5704ZM110.713 28.8374L109.055 26.5353H109.79L111.458 28.8374H110.713Z" fill="#FFFFFF"></path>
<path d="M113.651 28.2594H117.527V28.8374H112.972V22.4889H117.389V23.0669H113.651V28.2543V28.2594ZM113.579 25.3289H116.986V25.9019H113.579V25.3289Z" fill="#FFFFFF"></path>
</g>
<defs>
<clipPath id="clip0_622_717">
<rect width="122" height="35" fill="white"></rect>
</clipPath>
</defs>
</svg>